<svg width="24" height="24" viewBox="0 0 24 24" fill="none" xmlns="http://www.w3.org/2000/svg">
<path fill-rule="evenodd" clip-rule="evenodd" d="M3.71164 18.7879L1 21.4996L2.3288 22.8284L6.15722 18.9999L8.15722 16.9999L16.8695 8.2877L18.3475 6.80961L23 2.15716L21.6712 0.828369L16.9774 5.52212L15.449 7.05054L5.49963 16.9999L3.71164 18.7879ZM5 4.99994H14.6712L12.6712 6.99994H5C3.89543 6.99994 3 7.89537 3 8.99994V14.9999C3 15.4685 3.1611 15.8993 3.43092 16.2402L2.01193 17.6592C1.38246 16.9524 1 16.0208 1 14.9999V8.99994C1 6.7908 2.79086 4.99994 5 4.99994ZM15 16.9999H10.9856L8.98565 18.9999H15C17.1482 18.9999 18.9009 17.3065 18.9959 15.1817L23 17.9999V5.99994L19.5751 8.41052L17 10.9856V13.7769V14.9999C17 16.1045 16.1046 16.9999 15 16.9999ZM19 12.7389L21 14.1469V9.85394L19 11.2609V12.7389Z" fill="white"/>
</svg>
