<svg width="26" height="24" viewBox="0 0 26 24" fill="none" xmlns="http://www.w3.org/2000/svg">
<g opacity="0.6">
<path fill-rule="evenodd" clip-rule="evenodd" d="M16.6758 1.48805C15.5174 1.17114 14.2822 1 13 1C6.372 1 1 5.573 1 11.213C1 13.603 1.932 15.804 3.427 17.377L1 23L8.563 20.74C10.148 21.174 11.664 21.372 13.086 21.372C20.184 21.373 25 16.441 25 11.213C25 10.0009 24.7519 8.83815 24.2965 7.75944C23.7918 8.20239 23.1971 8.54531 22.5434 8.75724C22.84 9.53301 23 10.358 23 11.213C23 16.253 17.854 19.372 13.087 19.372C11.1386 19.372 9.65769 18.9664 8.65765 18.6925C8.61732 18.6814 8.57777 18.6706 8.539 18.66L4.535 19.856L5.787 16.956C5.70721 16.8722 5.62121 16.7842 5.53062 16.6916C4.54029 15.6788 3 14.1036 3 11.213C3 6.685 7.486 3 13 3C14.0584 3 15.079 3.13578 16.0372 3.38723C16.121 2.70165 16.3435 2.05895 16.6758 1.48805Z" fill="black"/>
<path d="M16.6758 1.48805L16.8055 1.56352L16.9037 1.39486L16.7154 1.34337L16.6758 1.48805ZM3.427 17.377L3.56472 17.4364L3.60398 17.3455L3.53573 17.2737L3.427 17.377ZM1 23L0.862281 22.9406L0.734854 23.2358L1.04295 23.1437L1 23ZM8.563 20.74L8.60261 20.5953L8.5612 20.584L8.52005 20.5963L8.563 20.74ZM13.086 21.372L13.086 21.222H13.086V21.372ZM24.2965 7.75944L24.4347 7.70111L24.3539 7.50956L24.1976 7.6467L24.2965 7.75944ZM22.5434 8.75724L22.4972 8.61456L22.3469 8.66327L22.4033 8.81082L22.5434 8.75724ZM8.65765 18.6925L8.61802 18.8371H8.61802L8.65765 18.6925ZM8.539 18.66L8.57851 18.5153L8.53715 18.504L8.49607 18.5163L8.539 18.66ZM4.535 19.856L4.39729 19.7965L4.26984 20.0918L4.57793 19.9997L4.535 19.856ZM5.787 16.956L5.92471 17.0155L5.96402 16.9244L5.89564 16.8526L5.787 16.956ZM5.53062 16.6916L5.42337 16.7965L5.53062 16.6916ZM16.0372 3.38723L15.9991 3.53232L16.1652 3.57591L16.1861 3.40542L16.0372 3.38723ZM16.7154 1.34337C15.5441 1.02293 14.2956 0.85 13 0.85V1.15C14.2689 1.15 15.4908 1.31936 16.6363 1.63273L16.7154 1.34337ZM13 0.85C6.31274 0.85 0.85 5.4684 0.85 11.213H1.15C1.15 5.6776 6.43126 1.15 13 1.15V0.85ZM0.85 11.213C0.85 13.6419 1.79705 15.8797 3.31827 17.4803L3.53573 17.2737C2.06695 15.7283 1.15 13.5641 1.15 11.213H0.85ZM3.28928 17.3176L0.862281 22.9406L1.13772 23.0594L3.56472 17.4364L3.28928 17.3176ZM1.04295 23.1437L8.60595 20.8837L8.52005 20.5963L0.957053 22.8563L1.04295 23.1437ZM8.52339 20.8847C10.1207 21.3221 11.65 21.522 13.086 21.522V21.222C11.678 21.222 10.1753 21.0259 8.60261 20.5953L8.52339 20.8847ZM13.086 21.522C20.2519 21.523 25.15 16.538 25.15 11.213H24.85C24.85 16.344 20.1161 21.223 13.086 21.222L13.086 21.522ZM25.15 11.213C25.15 9.98018 24.8976 8.79761 24.4347 7.70111L24.1584 7.81778C24.6062 8.8787 24.85 10.0217 24.85 11.213H25.15ZM24.1976 7.6467C23.7079 8.07645 23.1311 8.40904 22.4972 8.61456L22.5897 8.89993C23.2632 8.68159 23.8757 8.32833 24.3955 7.87219L24.1976 7.6467ZM22.4033 8.81082C22.6936 9.57009 22.85 10.3769 22.85 11.213H23.15C23.15 10.339 22.9865 9.49594 22.6835 8.70367L22.4033 8.81082ZM22.85 11.213C22.85 13.6764 21.5939 15.6749 19.7412 17.0624C17.8864 18.4515 15.4402 19.222 13.087 19.222V19.522C15.5008 19.522 18.0111 18.733 19.921 17.3026C21.8331 15.8706 23.15 13.7896 23.15 11.213H22.85ZM13.087 19.222C11.1599 19.222 9.69538 18.8212 8.69727 18.5478L8.61802 18.8371C9.61999 19.1116 11.1172 19.522 13.087 19.522V19.222ZM8.69728 18.5478C8.65695 18.5367 8.61734 18.5259 8.57851 18.5153L8.49949 18.8047C8.53819 18.8153 8.57768 18.8261 8.61802 18.8371L8.69728 18.5478ZM8.49607 18.5163L4.49207 19.7123L4.57793 19.9997L8.58193 18.8037L8.49607 18.5163ZM4.67271 19.9155L5.92471 17.0155L5.64929 16.8965L4.39729 19.7965L4.67271 19.9155ZM5.89564 16.8526C5.81503 16.7679 5.7283 16.6792 5.63787 16.5867L5.42337 16.7965C5.51412 16.8893 5.59939 16.9765 5.67836 17.0594L5.89564 16.8526ZM5.63787 16.5867C4.65099 15.5774 3.15 14.0399 3.15 11.213H2.85C2.85 14.1672 4.4296 15.7801 5.42337 16.7965L5.63787 16.5867ZM3.15 11.213C3.15 6.7941 7.53988 3.15 13 3.15V2.85C7.43212 2.85 2.85 6.5759 2.85 11.213H3.15ZM13 3.15C14.0456 3.15 15.0533 3.28413 15.9991 3.53232L16.0752 3.24214C15.1046 2.98742 14.0712 2.85 13 2.85V3.15ZM16.1861 3.40542C16.2673 2.74051 16.4831 2.11723 16.8055 1.56352L16.5462 1.41258C16.2039 2.00066 15.9746 2.6628 15.8883 3.36903L16.1861 3.40542Z" fill="black"/>
</g>
<circle cx="21" cy="4" r="3" fill="#F82047"/>
</svg>
