<svg width="16" height="16" viewBox="0 0 16 16" fill="none" xmlns="http://www.w3.org/2000/svg">
<path d="M6.48962 12.9999C4.92761 12.9999 3.65625 11.7285 3.65625 10.1665V3.33325H2.48962C1.47827 3.33325 0.65625 4.15515 0.65625 5.1665V14.1665C0.65625 15.1779 1.47827 15.9999 2.48962 15.9999H10.8229C11.8342 15.9999 12.6562 15.1779 12.6562 14.1665V12.9999H6.48962Z" fill="white"/>
<path d="M15.6666 1.83337C15.6666 0.820679 14.8459 0 13.8334 0H6.83337C5.82068 0 5 0.820679 5 1.83337V10.1666C5 11.1793 5.82068 12 6.83337 12H13.8334C14.8459 12 15.6666 11.1793 15.6666 10.1666V1.83337Z" fill="white"/>
</svg>
