<svg width="89" height="81" viewBox="0 0 89 81" fill="none" xmlns="http://www.w3.org/2000/svg">
<path opacity="0.08" d="M0 12C0 5.37258 5.37258 0 12 0H77C83.6274 0 89 5.37258 89 12V69C89 75.6274 83.6274 81 77 81H12C5.37259 81 0 75.6274 0 69V12Z" fill="url(#paint0_linear)"/>
<path d="M45.1881 36.5825C48.5172 36.5825 51.216 33.8837 51.216 30.5546C51.216 27.2254 48.5172 24.5266 45.1881 24.5266C41.859 24.5266 39.1602 27.2254 39.1602 30.5546C39.1602 33.8837 41.859 36.5825 45.1881 36.5825Z" fill="url(#paint1_linear)"/>
<path d="M50.716 39.5958H39.6648C36.6166 39.5958 34.1392 42.0733 34.1392 45.1214V48.1354C34.1392 48.9672 34.8143 49.6423 35.6461 49.6423H54.7346C55.5665 49.6423 56.2416 48.9672 56.2416 48.1354V45.1214C56.2416 42.0733 53.7641 39.5958 50.716 39.5958Z" fill="url(#paint2_linear)"/>
<path d="M72.1522 19.9403C71.939 19.8232 71.6797 19.8366 71.4757 19.9739L68.5511 21.9688V20.5339C68.5511 20.1624 68.2563 19.8608 67.893 19.8608H58.6798C56.7608 19.8608 56.7056 24.6947 56.7056 25.2452C56.7056 25.7957 56.7608 30.6296 58.6798 30.6296H67.893C68.2563 30.6296 68.5511 30.328 68.5511 29.9565V28.5216L71.477 30.5165C71.5876 30.5919 71.7152 30.6296 71.8416 30.6296C71.9482 30.6296 72.0548 30.6026 72.1522 30.5501C72.3654 30.433 72.4997 30.2055 72.4997 29.9565V20.5339C72.4997 20.2849 72.3654 20.0574 72.1522 19.9403Z" fill="url(#paint3_linear)"/>
<path fill-rule="evenodd" clip-rule="evenodd" d="M55.485 19H27.6747H27.6739C25.0958 19 23 21.0977 23 23.6739V38.6305C23 38.643 23.0002 38.6554 23.0007 38.6678V49.8479C23.0007 52.4241 25.0965 54.5218 27.6746 54.5218H41.6964V56.3913H35.1529C32.7272 56.3913 30.7287 58.2481 30.5006 60.6132C30.4857 60.7628 30.4782 60.9135 30.4782 61.0652C30.4782 61.5812 30.8971 62 31.4131 62H31.4138H57.587H57.5878C58.1038 62 58.5226 61.5812 58.5226 61.0652C58.5226 60.9126 58.515 60.761 58.4999 60.6106C58.2707 58.2467 56.2727 56.3913 53.8479 56.3913H47.3044V54.5218H61.3262C63.9043 54.5218 66.0001 52.4241 66.0001 49.8479V38.6678C66.0006 38.6554 66.0008 38.643 66.0008 38.6305V32.4215H64.1305V47.0435H46.3304C46.0686 47.0435 45.833 47.1519 45.6629 47.3258C45.662 47.3267 45.6611 47.3272 45.6601 47.3277C45.6592 47.3282 45.6582 47.3286 45.6573 47.3296C45.6444 47.3425 45.6358 47.3585 45.6273 47.3744C45.621 47.3861 45.6148 47.3978 45.6068 47.4081C45.5527 47.4773 45.4984 47.5483 45.4648 47.6306C45.4475 47.6731 45.4415 47.7175 45.4355 47.7624C45.4331 47.7807 45.4306 47.7991 45.4274 47.8175C45.4239 47.8375 45.4187 47.8568 45.4134 47.876C45.4045 47.9089 45.3955 47.9418 45.3955 47.9783C45.3955 47.9839 45.3993 47.9877 45.3993 47.9933C45.3993 47.9973 45.3982 48.0008 45.3972 48.004C45.3964 48.0068 45.3955 48.0094 45.3955 48.012L45.4142 48.3803C45.4188 48.4656 44.624 48.4222 43.813 48.378H43.8129L43.5873 48.3657L43.6053 48.012C43.6053 48.0107 43.6051 48.0094 43.6047 48.008C43.6044 48.0067 43.604 48.0054 43.6036 48.004C43.6026 48.0008 43.6015 47.9973 43.6015 47.9933C43.6015 47.9923 43.6016 47.9913 43.6018 47.9904C43.6022 47.9888 43.6028 47.9873 43.6034 47.9858C43.6043 47.9835 43.6053 47.9811 43.6053 47.9783C43.6053 47.9418 43.5963 47.9089 43.5874 47.876C43.5821 47.8568 43.5769 47.8375 43.5735 47.8175C43.5702 47.7991 43.5677 47.7807 43.5653 47.7624L43.5653 47.7624C43.5593 47.7175 43.5533 47.673 43.536 47.6306C43.5024 47.5483 43.4481 47.4773 43.394 47.4081C43.3861 47.3978 43.3798 47.3861 43.3735 47.3744C43.365 47.3585 43.3564 47.3425 43.3435 47.3296C43.3426 47.3287 43.3417 47.3282 43.3408 47.3277C43.3398 47.3273 43.3388 47.3268 43.3379 47.3258C43.1678 47.1519 42.9322 47.0435 42.6705 47.0435H24.8703V23.6739C24.8703 22.1277 26.1285 20.8695 27.6746 20.8695H54.591C54.8026 20.1647 55.0912 19.5034 55.485 19Z" fill="url(#paint4_linear)"/>
<defs>
<linearGradient id="paint0_linear" x1="-136.019" y1="-162" x2="89.4859" y2="-191.206" gradientUnits="userSpaceOnUse">
<stop stop-color="#ABFFB3"/>
<stop offset="1" stop-color="#4CBD80"/>
</linearGradient>
<linearGradient id="paint1_linear" x1="14.9807" y1="9.1963" x2="80.9441" y2="46.1354" gradientUnits="userSpaceOnUse">
<stop offset="0.0001" stop-color="#7D35B4"/>
<stop offset="0.0002" stop-color="#8339BC"/>
<stop offset="1" stop-color="#3A0761"/>
</linearGradient>
<linearGradient id="paint2_linear" x1="-10.1899" y1="26.8206" x2="52.9036" y2="104.551" gradientUnits="userSpaceOnUse">
<stop offset="0.0001" stop-color="#7D35B4"/>
<stop offset="0.0002" stop-color="#8339BC"/>
<stop offset="1" stop-color="#3A0761"/>
</linearGradient>
<linearGradient id="paint3_linear" x1="32.5674" y1="-1.67659" x2="72.0764" y2="-8.50675" gradientUnits="userSpaceOnUse">
<stop stop-color="#ABFFB3"/>
<stop offset="1" stop-color="#4CBD80"/>
</linearGradient>
<linearGradient id="paint4_linear" x1="-63.2431" y1="-35.679" x2="172.032" y2="96.0761" gradientUnits="userSpaceOnUse">
<stop offset="0.0001" stop-color="#7D35B4"/>
<stop offset="0.0002" stop-color="#8339BC"/>
<stop offset="1" stop-color="#3A0761"/>
</linearGradient>
</defs>
</svg>
