<svg width="14" height="14" viewBox="0 0 14 14" fill="none" xmlns="http://www.w3.org/2000/svg">
<path d="M0 0.7C0 0.313401 0.313401 0 0.7 0H5.6C5.9866 0 6.3 0.313401 6.3 0.7V5.6C6.3 5.9866 5.9866 6.3 5.6 6.3H0.7C0.313401 6.3 0 5.9866 0 5.6V0.7Z" fill="#3A0761"/>
<path d="M0 8.4C0 8.0134 0.313401 7.7 0.7 7.7H5.6C5.9866 7.7 6.3 8.0134 6.3 8.4V13.3C6.3 13.6866 5.9866 14 5.6 14H0.7C0.313401 14 0 13.6866 0 13.3V8.4Z" fill="#3A0761"/>
<path d="M7.7 0.7C7.7 0.313401 8.0134 0 8.4 0H13.3C13.6866 0 14 0.313401 14 0.7V5.6C14 5.9866 13.6866 6.3 13.3 6.3H8.4C8.0134 6.3 7.7 5.9866 7.7 5.6V0.7Z" fill="#3A0761"/>
<path d="M7.7 8.4C7.7 8.0134 8.0134 7.7 8.4 7.7H13.3C13.6866 7.7 14 8.0134 14 8.4V13.3C14 13.6866 13.6866 14 13.3 14H8.4C8.0134 14 7.7 13.6866 7.7 13.3V8.4Z" fill="#3A0761"/>
</svg>
