<svg width="27" height="16" viewBox="0 0 27 16" fill="none" xmlns="http://www.w3.org/2000/svg">
<path fill-rule="evenodd" clip-rule="evenodd" d="M27 2.5C27 1.11929 25.8807 -4.89256e-08 24.5 -1.09278e-07L21.5 -2.40412e-07C20.1193 -3.00765e-07 19 1.11929 19 2.5L19 12.5C19 13.8807 20.1193 15 21.5 15L24.5 15C25.8807 15 27 13.8807 27 12.5L27 2.5ZM24.5 2C24.7761 2 25 2.22386 25 2.5L25 12.5C25 12.7761 24.7761 13 24.5 13L21.5 13C21.2239 13 21 12.7761 21 12.5L21 2.5C21 2.22386 21.2239 2 21.5 2L24.5 2ZM18 3C18 1.34315 16.6569 -4.52113e-07 15 -5.24536e-07L3 -1.04907e-06C1.34315 -1.1215e-06 -5.87107e-08 1.34314 -1.31134e-07 3L-5.45242e-07 12.4737C-6.17665e-07 14.1305 1.34315 15.4737 3 15.4737L15 15.4737C16.6569 15.4737 18 14.1305 18 12.4737L18 3ZM15 2C15.5523 2 16 2.44771 16 3L16 12.4737C16 13.026 15.5523 13.4737 15 13.4737L3 13.4737C2.44772 13.4737 2 13.026 2 12.4737L2 3C2 2.44771 2.44772 2 3 2L15 2Z" fill="black" fill-opacity="0.6"/>
</svg>
