<svg width="22" height="20" viewBox="0 0 22 20" fill="none" xmlns="http://www.w3.org/2000/svg">
<path fill-rule="evenodd" clip-rule="evenodd" d="M4 2H18C19.1046 2 20 2.89543 20 4V12C20 13.1046 19.1046 14 18 14H4C2.89543 14 2 13.1046 2 12V4C2 2.89543 2.89543 2 4 2ZM0 4C0 1.79086 1.79086 0 4 0H18C20.2091 0 22 1.79086 22 4V12C22 14.2091 20.2091 16 18 16H12V18H15V20H7V18H10V16H4C1.79086 16 0 14.2091 0 12V4ZM9.58578 5.17157L6.75735 8L8.17157 9.41421L10 7.58579V12H12L12 7.58579L13.8284 9.41421L15.2426 8L12.4142 5.17157L11 3.75736L9.58578 5.17157Z" fill="black" fill-opacity="0.6"/>
</svg>
