<svg width="23" height="22" viewBox="0 0 23 22" fill="none" xmlns="http://www.w3.org/2000/svg">
<path fill-rule="evenodd" clip-rule="evenodd" d="M8.33154 8.23324e-07C9.50051 8.81084e-07 10.4481 0.978833 10.4481 2.18628V7.93073C10.4481 9.13818 9.50051 10.117 8.33154 10.117L2.11665 10.117C0.947683 10.117 4.83985e-05 9.13818 4.84452e-05 7.93073L4.86673e-05 2.18628C4.8714e-05 0.978832 0.947684 4.58485e-07 2.11665 5.16244e-07L8.33154 8.23324e-07ZM7.83154 7.93073C8.10768 7.93073 8.33154 7.70687 8.33154 7.43073L8.33154 2.68628C8.33154 2.41014 8.10768 2.18628 7.83154 2.18628L2.61665 2.18628C2.34051 2.18628 2.11665 2.41014 2.11665 2.68628L2.11665 7.43073C2.11665 7.70687 2.34051 7.93073 2.61665 7.93073L7.83154 7.93073Z" fill="black" fill-opacity="0.6"/>
<path fill-rule="evenodd" clip-rule="evenodd" d="M20.3417 3.0708e-07C21.5107 3.64839e-07 22.4583 0.978832 22.4583 2.18628V7.93073C22.4583 9.13818 21.5107 10.117 20.3417 10.117H14.1268C12.9579 10.117 12.0102 9.13818 12.0102 7.93073V2.18628C12.0102 0.978831 12.9579 -5.77591e-08 14.1268 0L20.3417 3.0708e-07ZM19.8417 7.93073C20.1179 7.93073 20.3417 7.70687 20.3417 7.43073V2.68628C20.3417 2.41014 20.1179 2.18628 19.8417 2.18628L14.6268 2.18628C14.3507 2.18628 14.1268 2.41014 14.1268 2.68628V7.43073C14.1268 7.70687 14.3507 7.93073 14.6268 7.93073L19.8417 7.93073Z" fill="black" fill-opacity="0.6"/>
<path fill-rule="evenodd" clip-rule="evenodd" d="M8.33149 11.883C9.50046 11.883 10.4481 12.8618 10.4481 14.0693V19.8137C10.4481 21.0212 9.50046 22 8.33149 22H2.1166C0.947635 22 -4.66917e-08 21.0212 0 19.8137L2.22136e-07 14.0693C2.68828e-07 12.8618 0.947635 11.883 2.1166 11.883L8.33149 11.883ZM7.83149 19.8137C8.10763 19.8137 8.33149 19.5899 8.33149 19.3137L8.33149 14.5693C8.33149 14.2931 8.10763 14.0693 7.83149 14.0693L2.6166 14.0693C2.34046 14.0693 2.1166 14.2931 2.1166 14.5693L2.1166 19.3137C2.1166 19.5899 2.34046 19.8137 2.6166 19.8137H7.83149Z" fill="black" fill-opacity="0.6"/>
<path fill-rule="evenodd" clip-rule="evenodd" d="M20.3417 11.883C21.5107 11.883 22.4583 12.8618 22.4583 14.0693V19.8137C22.4583 21.0212 21.5107 22 20.3417 22H14.1268C12.9578 22 12.0102 21.0212 12.0102 19.8137V14.0693C12.0102 12.8618 12.9578 11.883 14.1268 11.883H20.3417ZM19.8417 19.8137C20.1178 19.8137 20.3417 19.5899 20.3417 19.3137V14.5693C20.3417 14.2931 20.1178 14.0693 19.8417 14.0693H14.6268C14.3507 14.0693 14.1268 14.2931 14.1268 14.5693V19.3137C14.1268 19.5899 14.3507 19.8137 14.6268 19.8137H19.8417Z" fill="black" fill-opacity="0.6"/>
</svg>
