<svg width="10" height="14" viewBox="0 0 10 14" fill="none" xmlns="http://www.w3.org/2000/svg">
<g opacity="0.8">
<path d="M9.72221 5.25H8.88888V4.08332C8.88888 1.83176 7.14437 0 5 0C2.85562 0 1.11112 1.83176 1.11112 4.08332V5.25H0.277786C0.124245 5.25 0 5.38046 0 5.54168V12.8334C0 13.4768 0.498307 14 1.11112 14H8.88891C9.50169 14 10 13.4768 10 12.8333V5.54168C10 5.38046 9.87576 5.25 9.72221 5.25ZM5.83172 11.3428C5.84039 11.4251 5.81518 11.5077 5.76255 11.5696C5.70992 11.6313 5.63451 11.6667 5.55557 11.6667H4.44445C4.36552 11.6667 4.2901 11.6313 4.23747 11.5696C4.18484 11.5078 4.15961 11.4251 4.16831 11.3428L4.34354 9.68825C4.05898 9.47092 3.88891 9.12712 3.88891 8.75C3.88891 8.10657 4.38721 7.58332 5.00003 7.58332C5.61284 7.58332 6.11115 8.10655 6.11115 8.75C6.11115 9.12712 5.94107 9.47092 5.65651 9.68825L5.83172 11.3428ZM7.22221 5.25H2.77779V4.08332C2.77779 2.79675 3.77469 1.75 5 1.75C6.22531 1.75 7.22221 2.79675 7.22221 4.08332V5.25Z" fill="#3A0761"/>
</g>
</svg>
