<svg width="170" height="58" viewBox="0 0 170 58" fill="none" xmlns="http://www.w3.org/2000/svg">
<path d="M18.1488 39.9936L37.4516 32.9679L34.6518 48.1847L11.2403 48.1847L18.1488 39.9936Z" fill="white"/>
<path d="M28.6201 26.0409L32.1604 6.04744C30.695 6.35544 29.0306 6.73588 27.6376 7.24289C22.8616 8.9812 19.0631 12.1666 16.7666 16.3829L28.6926 26.2399L28.6201 26.0409ZM51.6125 14.292C47.7211 9.17289 41.6048 5.99037 35.1095 6.10084L32.5086 21.2452L51.6125 14.292ZM52.9338 16.0647L38.0089 21.4969L38.968 22.2746L54.5316 35.3148C56.4119 30.574 56.6635 25.0737 54.7804 19.8998C54.2734 18.5068 53.5674 17.1862 52.9338 16.0647ZM27.9156 29.6778L15.2294 18.9706C13.3492 23.7115 13.0975 29.2117 14.9807 34.3857C15.4877 35.7787 16.1937 37.0992 16.8273 38.2208L31.7522 32.7886L27.9156 29.6778ZM40.4364 31.8814L37.6007 48.238C39.1385 48.129 40.5315 47.622 42.1235 47.0426C46.8994 45.3043 50.698 42.1188 52.9945 37.9026L41.0685 28.0455L40.4364 31.8814Z" fill="white"/>
<path d="M75.2745 36.9165C73.6229 36.9165 72.0503 36.6617 70.5567 36.1522C69.0808 35.6426 67.7718 34.8783 66.6296 33.8592L69.4761 30.4592C71.3211 31.9352 73.3154 32.6731 75.459 32.6731C76.1443 32.6731 76.6626 32.5677 77.0141 32.3569C77.3831 32.1284 77.5676 31.8122 77.5676 31.408V31.3553C77.5676 31.162 77.5236 30.9951 77.4358 30.8545C77.3479 30.6964 77.181 30.5471 76.935 30.4065C76.7066 30.2659 76.3903 30.1341 75.9862 30.0111C75.5996 29.8706 75.0901 29.73 74.4575 29.5894C73.4735 29.361 72.5598 29.115 71.7164 28.8515C70.873 28.5703 70.135 28.2189 69.5025 27.7972C68.8875 27.3579 68.3955 26.822 68.0265 26.1895C67.6751 25.5393 67.4994 24.7399 67.4994 23.791V23.7383C67.4994 22.8773 67.6575 22.0866 67.9738 21.3662C68.3077 20.6458 68.7821 20.0221 69.3971 19.4949C70.0296 18.9678 70.7852 18.5637 71.6637 18.2825C72.5423 17.9838 73.535 17.8345 74.642 17.8345C76.2234 17.8345 77.629 18.0453 78.859 18.467C80.1066 18.8712 81.2311 19.4774 82.2326 20.2856L79.6761 23.8964C78.8327 23.299 77.9629 22.851 77.0668 22.5523C76.1882 22.236 75.336 22.0779 74.5102 22.0779C73.8952 22.0779 73.4296 22.1921 73.1133 22.4205C72.8146 22.6489 72.6653 22.93 72.6653 23.2639V23.3166C72.6653 23.5275 72.7092 23.712 72.797 23.8701C72.9025 24.0282 73.0694 24.1776 73.2978 24.3182C73.5438 24.4412 73.8689 24.5729 74.273 24.7135C74.6947 24.8365 75.2218 24.9683 75.8544 25.1088C76.9086 25.3373 77.8575 25.6096 78.7009 25.9259C79.5619 26.2246 80.2911 26.5936 80.8885 27.0329C81.4859 27.4721 81.9427 28.0081 82.259 28.6406C82.5753 29.2556 82.7334 29.9936 82.7334 30.8545V30.9073C82.7334 31.8561 82.5489 32.6995 82.1799 33.4375C81.8285 34.1755 81.3277 34.808 80.6776 35.3351C80.0275 35.8447 79.2456 36.24 78.3319 36.5212C77.4182 36.7847 76.3991 36.9165 75.2745 36.9165Z" fill="white"/>
<path d="M89.6652 36.9164C88.1365 36.9164 86.9417 36.4508 86.0807 35.5195C85.2373 34.5883 84.8156 33.3056 84.8156 31.6715V22.3413H89.8233V30.0637C89.8233 30.8544 90.0078 31.4518 90.3768 31.856C90.7458 32.2601 91.2378 32.4622 91.8528 32.4622C92.4502 32.4622 92.9422 32.2601 93.3287 31.856C93.7329 31.4518 93.9349 30.8544 93.9349 30.0637V22.3413H98.9427V36.6001H93.9349V34.6498C93.4781 35.2472 92.907 35.7743 92.2218 36.2311C91.5365 36.688 90.6843 36.9164 89.6652 36.9164Z" fill="white"/>
<path d="M101.631 22.3414H106.638V24.2918C107.095 23.6944 107.666 23.1673 108.351 22.7104C109.037 22.2536 109.88 22.0251 110.882 22.0251C111.831 22.0251 112.656 22.2272 113.359 22.6313C114.062 23.0355 114.607 23.6065 114.993 24.3445C115.608 23.6241 116.294 23.0618 117.049 22.6577C117.805 22.236 118.71 22.0251 119.764 22.0251C121.292 22.0251 122.487 22.482 123.348 23.3957C124.209 24.2918 124.64 25.5745 124.64 27.2437V36.6002H119.632V28.8515C119.632 28.0608 119.456 27.4721 119.105 27.0856C118.753 26.6814 118.279 26.4794 117.682 26.4794C117.084 26.4794 116.592 26.6814 116.206 27.0856C115.819 27.4721 115.626 28.0608 115.626 28.8515V36.6002H110.618V28.8515C110.618 28.0608 110.442 27.4721 110.091 27.0856C109.74 26.6814 109.265 26.4794 108.668 26.4794C108.07 26.4794 107.578 26.6814 107.192 27.0856C106.823 27.4721 106.638 28.0608 106.638 28.8515V36.6002H101.631V22.3414Z" fill="white"/>
<path d="M127.223 22.3414H132.231V24.2918C132.688 23.6944 133.259 23.1673 133.944 22.7104C134.629 22.2536 135.473 22.0251 136.474 22.0251C137.423 22.0251 138.249 22.2272 138.952 22.6313C139.654 23.0355 140.199 23.6065 140.586 24.3445C141.201 23.6241 141.886 23.0618 142.642 22.6577C143.397 22.236 144.302 22.0251 145.356 22.0251C146.885 22.0251 148.08 22.482 148.941 23.3957C149.802 24.2918 150.232 25.5745 150.232 27.2437V36.6002H145.224V28.8515C145.224 28.0608 145.049 27.4721 144.697 27.0856C144.346 26.6814 143.872 26.4794 143.274 26.4794C142.677 26.4794 142.185 26.6814 141.798 27.0856C141.412 27.4721 141.218 28.0608 141.218 28.8515V36.6002H136.211V28.8515C136.211 28.0608 136.035 27.4721 135.683 27.0856C135.332 26.6814 134.858 26.4794 134.26 26.4794C133.663 26.4794 133.171 26.6814 132.784 27.0856C132.415 27.4721 132.231 28.0608 132.231 28.8515V36.6002H127.223V22.3414Z" fill="white"/>
<path d="M152.92 22.3415H157.928V36.6003H152.92V22.3415ZM152.815 17.3601H158.033V21.05H152.815V17.3601Z" fill="white"/>
<path d="M166.389 36.8903C164.878 36.8903 163.7 36.5301 162.857 35.8097C162.014 35.0893 161.592 33.8769 161.592 32.1725V26.3741H159.905V22.3415H161.592V18.7307H166.6V22.3415H169.921V26.3741H166.6V31.1973C166.6 31.7069 166.714 32.0759 166.942 32.3043C167.171 32.5151 167.513 32.6205 167.97 32.6205C168.304 32.6205 168.629 32.5766 168.945 32.4888C169.262 32.4009 169.569 32.2867 169.868 32.1461V36.0732C169.411 36.3192 168.893 36.5125 168.313 36.6531C167.733 36.8112 167.092 36.8903 166.389 36.8903Z" fill="white"/>
</svg>
