<svg width="143" height="38" viewBox="0 0 143 38" fill="none" xmlns="http://www.w3.org/2000/svg">
<path d="M6.24187 30.5172L23.5949 24.2012L21.0778 37.8809L0.03125 37.8809L6.24187 30.5172Z" fill="white"/>
<path d="M15.6556 17.9739L18.8383 0C17.5209 0.276895 16.0246 0.618904 14.7723 1.0747C10.4788 2.63741 7.06398 5.50108 4.99943 9.29145L15.7207 18.1528L15.6556 17.9739ZM36.3255 7.41173C32.8271 2.80974 27.3287 -0.0512985 21.4895 0.0480138L19.1514 13.6626L36.3255 7.41173ZM37.5133 9.00536L24.096 13.8888L24.9582 14.588L38.9497 26.311C40.64 22.0491 40.8663 17.1044 39.1733 12.4531C38.7176 11.2008 38.0829 10.0136 37.5133 9.00536ZM15.0223 21.2434L3.61758 11.6178C1.92727 15.8797 1.70101 20.8244 3.39396 25.4757C3.84975 26.728 4.48444 27.9151 5.05401 28.9234L18.4713 24.0399L15.0223 21.2434ZM26.2783 23.2244L23.729 37.9288C25.1115 37.8308 26.3638 37.375 27.795 36.8541C32.0885 35.2914 35.5033 32.4277 37.5679 28.6373L26.8466 19.776L26.2783 23.2244Z" fill="white"/>
<path d="M57.5959 27.7509C56.111 27.7509 54.6973 27.5219 53.3546 27.0638C52.0278 26.6057 50.851 25.9186 49.8242 25.0024L52.3832 21.9459C54.0418 23.2728 55.8346 23.9362 57.7617 23.9362C58.3778 23.9362 58.8438 23.8414 59.1597 23.6519C59.4914 23.4465 59.6573 23.1622 59.6573 22.7989V22.7515C59.6573 22.5777 59.6178 22.4277 59.5388 22.3013C59.4598 22.1591 59.3097 22.0249 59.0886 21.8985C58.8833 21.7721 58.5989 21.6537 58.2356 21.5431C57.8881 21.4167 57.43 21.2904 56.8614 21.164C55.9768 20.9586 55.1554 20.7375 54.3972 20.5006C53.639 20.2478 52.9755 19.9319 52.4069 19.5528C51.854 19.1579 51.4117 18.6761 51.08 18.1075C50.7641 17.523 50.6061 16.8043 50.6061 15.9513V15.9039C50.6061 15.1299 50.7483 14.4191 51.0326 13.7714C51.3327 13.1238 51.7592 12.563 52.3121 12.0892C52.8808 11.6153 53.56 11.252 54.3498 10.9992C55.1396 10.7307 56.0321 10.5964 57.0272 10.5964C58.4489 10.5964 59.7125 10.786 60.8183 11.1651C61.9398 11.5284 62.9507 12.0734 63.8511 12.8L61.5528 16.0461C60.7946 15.509 60.0127 15.1062 59.2071 14.8377C58.4173 14.5533 57.6512 14.4112 56.9087 14.4112C56.3559 14.4112 55.9373 14.5139 55.653 14.7192C55.3844 14.9246 55.2502 15.1773 55.2502 15.4774V15.5248C55.2502 15.7144 55.2896 15.8802 55.3686 16.0224C55.4634 16.1645 55.6135 16.2988 55.8188 16.4252C56.04 16.5358 56.3322 16.6542 56.6955 16.7806C57.0746 16.8912 57.5485 17.0096 58.1171 17.136C59.0649 17.3413 59.9179 17.5862 60.6761 17.8705C61.4501 18.139 62.1056 18.4708 62.6427 18.8657C63.1798 19.2606 63.5905 19.7423 63.8748 20.311C64.1591 20.8639 64.3013 21.5273 64.3013 22.3013V22.3487C64.3013 23.2017 64.1354 23.9599 63.8037 24.6233C63.4878 25.2868 63.0376 25.8554 62.4532 26.3293C61.8687 26.7874 61.1658 27.1428 60.3444 27.3955C59.523 27.6325 58.6068 27.7509 57.5959 27.7509Z" fill="white"/>
<path d="M70.5335 27.7515C69.1593 27.7515 68.0852 27.3329 67.3111 26.4957C66.5529 25.6585 66.1738 24.5054 66.1738 23.0364V14.6487H70.6757V21.591C70.6757 22.3019 70.8416 22.8389 71.1733 23.2022C71.505 23.5656 71.9473 23.7472 72.5001 23.7472C73.0372 23.7472 73.4795 23.5656 73.827 23.2022C74.1903 22.8389 74.372 22.3019 74.372 21.591V14.6487H78.8739V27.4672H74.372V25.7138C73.9613 26.2509 73.4479 26.7248 72.8319 27.1355C72.2158 27.5462 71.4497 27.7515 70.5335 27.7515Z" fill="white"/>
<path d="M81.2896 14.6488H85.7914V16.4022C86.2021 15.8651 86.7155 15.3912 87.3315 14.9805C87.9476 14.5698 88.7058 14.3645 89.6062 14.3645C90.4592 14.3645 91.2016 14.5462 91.8334 14.9095C92.4653 15.2728 92.9549 15.7861 93.3024 16.4496C93.8553 15.8019 94.4713 15.2965 95.1506 14.9332C95.8298 14.5541 96.6433 14.3645 97.5911 14.3645C98.9653 14.3645 100.039 14.7752 100.813 15.5966C101.587 16.4022 101.974 17.5553 101.974 19.0559V27.4673H97.4726V20.5013C97.4726 19.7904 97.3146 19.2613 96.9987 18.9138C96.6828 18.5505 96.2563 18.3688 95.7192 18.3688C95.1822 18.3688 94.7399 18.5505 94.3924 18.9138C94.0449 19.2613 93.8711 19.7904 93.8711 20.5013V27.4673H89.3692V20.5013C89.3692 19.7904 89.2113 19.2613 88.8953 18.9138C88.5794 18.5505 88.1529 18.3688 87.6159 18.3688C87.0788 18.3688 86.6365 18.5505 86.289 18.9138C85.9573 19.2613 85.7914 19.7904 85.7914 20.5013V27.4673H81.2896V14.6488Z" fill="white"/>
<path d="M104.297 14.6488H108.799V16.4022C109.21 15.8651 109.723 15.3912 110.339 14.9805C110.955 14.5698 111.714 14.3645 112.614 14.3645C113.467 14.3645 114.209 14.5462 114.841 14.9095C115.473 15.2728 115.963 15.7861 116.31 16.4496C116.863 15.8019 117.479 15.2965 118.158 14.9332C118.838 14.5541 119.651 14.3645 120.599 14.3645C121.973 14.3645 123.047 14.7752 123.821 15.5966C124.595 16.4022 124.982 17.5553 124.982 19.0559V27.4673H120.48V20.5013C120.48 19.7904 120.322 19.2613 120.007 18.9138C119.691 18.5505 119.264 18.3688 118.727 18.3688C118.19 18.3688 117.748 18.5505 117.4 18.9138C117.053 19.2613 116.879 19.7904 116.879 20.5013V27.4673H112.377V20.5013C112.377 19.7904 112.219 19.2613 111.903 18.9138C111.587 18.5505 111.161 18.3688 110.624 18.3688C110.087 18.3688 109.644 18.5505 109.297 18.9138C108.965 19.2613 108.799 19.7904 108.799 20.5013V27.4673H104.297V14.6488Z" fill="white"/>
<path d="M127.399 14.6485H131.901V27.467H127.399V14.6485ZM127.305 10.1703H131.996V13.4875H127.305V10.1703Z" fill="white"/>
<path d="M139.505 27.7273C138.147 27.7273 137.088 27.4035 136.33 26.7559C135.572 26.1082 135.193 25.0183 135.193 23.4861V18.2734H133.676V14.6482H135.193V11.4021H139.695V14.6482H142.68V18.2734H139.695V22.6094C139.695 23.0675 139.797 23.3992 140.003 23.6045C140.208 23.7941 140.516 23.8889 140.927 23.8889C141.227 23.8889 141.519 23.8494 141.803 23.7704C142.088 23.6914 142.364 23.5888 142.633 23.4624V26.9928C142.222 27.2139 141.756 27.3877 141.235 27.5141C140.713 27.6562 140.137 27.7273 139.505 27.7273Z" fill="white"/>
</svg>
