<svg width="180" height="48" viewBox="0 0 180 48" fill="none" xmlns="http://www.w3.org/2000/svg">
<path d="M7.99359 38.4719L29.87 30.5095L26.6968 47.7551H0.164062L7.99359 38.4719Z" fill="#8339BC"/>
<path d="M19.8613 22.6591L23.8735 0C22.2127 0.349073 20.3264 0.780232 18.7477 1.35483C13.335 3.3249 9.03004 6.93503 6.42733 11.7134L19.9433 22.8846L19.8613 22.6591ZM45.9191 9.34373C41.5088 3.54215 34.5771 -0.0646704 27.2159 0.0605294L24.2682 17.224L45.9191 9.34373ZM47.4165 11.3528L30.5018 17.5092L31.5887 18.3906L49.2274 33.1694C51.3583 27.7965 51.6435 21.563 49.5093 15.6992C48.9347 14.1205 48.1346 12.6239 47.4165 11.3528ZM19.0628 26.7808L4.68528 14.6462C2.55435 20.0191 2.26912 26.2526 4.40336 32.1164C4.97796 33.6951 5.77809 35.1917 6.49614 36.4628L23.4109 30.3064L19.0628 26.7808ZM33.2529 29.2782L30.0391 47.8156C31.782 47.6921 33.3607 47.1175 35.1649 46.4608C40.5776 44.4907 44.8826 40.8806 47.4853 36.1022L33.9693 24.931L33.2529 29.2782Z" fill="#8339BC"/>
<path d="M72.736 34.9849C70.8641 34.9849 69.0818 34.6962 67.3892 34.1187C65.7164 33.5412 64.2329 32.6749 62.9385 31.5199L66.1645 27.6667C68.2554 29.3394 70.5156 30.1758 72.945 30.1758C73.7217 30.1758 74.3091 30.0563 74.7074 29.8173C75.1256 29.5585 75.3347 29.2 75.3347 28.742V28.6823C75.3347 28.4632 75.2849 28.274 75.1853 28.1147C75.0858 27.9355 74.8966 27.7662 74.6178 27.6069C74.3589 27.4476 74.0005 27.2983 73.5425 27.1589C73.1044 26.9996 72.5269 26.8403 71.81 26.6809C70.6948 26.4221 69.6593 26.1433 68.7035 25.8446C67.7476 25.526 66.9112 25.1277 66.1943 24.6498C65.4974 24.1519 64.9398 23.5446 64.5216 22.8277C64.1233 22.0909 63.9242 21.1848 63.9242 20.1095V20.0497C63.9242 19.074 64.1034 18.1779 64.4619 17.3614C64.8402 16.5449 65.3779 15.838 66.0749 15.2406C66.7918 14.6432 67.648 14.1852 68.6437 13.8666C69.6394 13.528 70.7645 13.3588 72.0191 13.3588C73.8113 13.3588 75.4044 13.5977 76.7983 14.0756C78.2122 14.5337 79.4867 15.2207 80.6217 16.1367L77.7243 20.2289C76.7685 19.5519 75.7827 19.0441 74.7671 18.7056C73.7715 18.3471 72.8056 18.1679 71.8697 18.1679C71.1727 18.1679 70.645 18.2973 70.2866 18.5562C69.9481 18.8151 69.7788 19.1337 69.7788 19.5121V19.5718C69.7788 19.8108 69.8286 20.0199 69.9281 20.1991C70.0476 20.3783 70.2368 20.5476 70.4957 20.7069C70.7745 20.8463 71.1429 20.9956 71.6009 21.1549C72.0788 21.2943 72.6762 21.4437 73.3931 21.603C74.5879 21.8619 75.6632 22.1705 76.6191 22.529C77.5949 22.8675 78.4213 23.2857 79.0983 23.7835C79.7754 24.2814 80.2932 24.8887 80.6516 25.6056C81.01 26.3026 81.1893 27.139 81.1893 28.1147V28.1745C81.1893 29.2498 80.9802 30.2057 80.562 31.042C80.1637 31.8784 79.5962 32.5953 78.8594 33.1927C78.1226 33.7702 77.2364 34.2182 76.2009 34.5368C75.1654 34.8355 74.0104 34.9849 72.736 34.9849Z" fill="#3A0761"/>
<path d="M89.0452 34.9849C87.3127 34.9849 85.9586 34.4572 84.9828 33.4018C84.027 32.3464 83.5491 30.8927 83.5491 29.0407V18.4666H89.2244V27.2186C89.2244 28.1147 89.4335 28.7918 89.8517 29.2498C90.2699 29.7078 90.8275 29.9368 91.5245 29.9368C92.2015 29.9368 92.7591 29.7078 93.1972 29.2498C93.6552 28.7918 93.8842 28.1147 93.8842 27.2186V18.4666H99.5596V34.6265H93.8842V32.4161C93.3665 33.0931 92.7193 33.6905 91.9426 34.2083C91.166 34.726 90.2002 34.9849 89.0452 34.9849Z" fill="#3A0761"/>
<path d="M102.606 18.4666H108.282V20.677C108.8 19.9999 109.447 19.4025 110.223 18.8848C111 18.367 111.956 18.1082 113.091 18.1082C114.166 18.1082 115.102 18.3372 115.899 18.7952C116.695 19.2532 117.313 19.9004 117.751 20.7367C118.448 19.9203 119.224 19.2831 120.081 18.825C120.937 18.3471 121.962 18.1082 123.157 18.1082C124.89 18.1082 126.244 18.6259 127.22 19.6614C128.195 20.677 128.683 22.1307 128.683 24.0225V34.6265H123.008V25.8446C123.008 24.9485 122.809 24.2814 122.41 23.8433C122.012 23.3852 121.475 23.1562 120.797 23.1562C120.12 23.1562 119.563 23.3852 119.125 23.8433C118.687 24.2814 118.468 24.9485 118.468 25.8446V34.6265H112.792V25.8446C112.792 24.9485 112.593 24.2814 112.195 23.8433C111.797 23.3852 111.259 23.1562 110.582 23.1562C109.905 23.1562 109.347 23.3852 108.909 23.8433C108.491 24.2814 108.282 24.9485 108.282 25.8446V34.6265H102.606V18.4666Z" fill="#3A0761"/>
<path d="M131.61 18.4666H137.286V20.677C137.803 19.9999 138.451 19.4025 139.227 18.8848C140.004 18.367 140.96 18.1082 142.095 18.1082C143.17 18.1082 144.106 18.3372 144.903 18.7952C145.699 19.2532 146.317 19.9004 146.755 20.7367C147.452 19.9203 148.228 19.2831 149.085 18.825C149.941 18.3471 150.966 18.1082 152.161 18.1082C153.894 18.1082 155.248 18.6259 156.224 19.6614C157.199 20.677 157.687 22.1307 157.687 24.0225V34.6265H152.012V25.8446C152.012 24.9485 151.813 24.2814 151.414 23.8433C151.016 23.3852 150.478 23.1562 149.801 23.1562C149.124 23.1562 148.567 23.3852 148.129 23.8433C147.691 24.2814 147.472 24.9485 147.472 25.8446V34.6265H141.796V25.8446C141.796 24.9485 141.597 24.2814 141.199 23.8433C140.8 23.3852 140.263 23.1562 139.586 23.1562C138.909 23.1562 138.351 23.3852 137.913 23.8433C137.495 24.2814 137.286 24.9485 137.286 25.8446V34.6265H131.61V18.4666Z" fill="#3A0761"/>
<path d="M160.734 18.4667H166.409V34.6265H160.734V18.4667ZM160.615 12.8212H166.529V17.003H160.615V12.8212Z" fill="#3A0761"/>
<path d="M175.998 34.9551C174.285 34.9551 172.951 34.5469 171.995 33.7305C171.039 32.914 170.561 31.54 170.561 29.6083V23.0369H168.65V18.4667H170.561V14.3745H176.237V18.4667H180V23.0369H176.237V28.5031C176.237 29.0806 176.366 29.4988 176.625 29.7577C176.884 29.9967 177.272 30.1161 177.79 30.1161C178.168 30.1161 178.537 30.0663 178.895 29.9668C179.254 29.8672 179.602 29.7378 179.941 29.5785V34.0291C179.423 34.3079 178.835 34.527 178.178 34.6863C177.521 34.8655 176.794 34.9551 175.998 34.9551Z" fill="#3A0761"/>
</svg>
