<svg width="126" height="42" viewBox="0 0 126 42" fill="none" xmlns="http://www.w3.org/2000/svg">
<path d="M14.1061 29.4164L28.3039 24.2489L26.2445 35.4412L9.02479 35.4412L14.1061 29.4164Z" fill="#8339BC"/>
<path d="M21.8083 19.1538L24.4122 4.4481C23.3344 4.67465 22.1102 4.95447 21.0856 5.32739C17.5727 6.60596 14.7788 8.94893 13.0897 12.0501L21.8616 19.3002L21.8083 19.1538ZM38.7198 10.5122C35.8575 6.74695 31.3588 4.40613 26.5814 4.48738L24.6684 15.6265L38.7198 10.5122ZM39.6916 11.816L28.714 15.8116L29.4194 16.3836L40.8669 25.9751C42.2498 22.488 42.435 18.4425 41.0498 14.6369C40.6769 13.6123 40.1576 12.641 39.6916 11.816ZM21.2901 21.8288L11.9591 13.9534C10.5761 17.4405 10.391 21.486 11.7761 25.2916C12.149 26.3162 12.6683 27.2875 13.1343 28.1125L24.112 24.1169L21.2901 21.8288ZM30.4995 23.4497L28.4137 35.4804C29.5448 35.4002 30.5694 35.0273 31.7404 34.6011C35.2532 33.3225 38.0471 30.9796 39.7363 27.8784L30.9644 20.6283L30.4995 23.4497Z" fill="#8339BC"/>
<path d="M56.1239 27.1534C54.9091 27.1534 53.7524 26.966 52.6539 26.5912C51.5683 26.2164 50.6054 25.6542 49.7654 24.9046L51.859 22.4038C53.2161 23.4894 54.6829 24.0322 56.2596 24.0322C56.7637 24.0322 57.1449 23.9547 57.4034 23.7996C57.6748 23.6316 57.8105 23.399 57.8105 23.1017V23.0629C57.8105 22.9208 57.7782 22.798 57.7136 22.6946C57.649 22.5783 57.5262 22.4685 57.3452 22.3651C57.1772 22.2617 56.9446 22.1647 56.6474 22.0743C56.363 21.9709 55.9882 21.8675 55.523 21.7641C54.7992 21.5961 54.1272 21.4152 53.5068 21.2213C52.8865 21.0145 52.3437 20.756 51.8784 20.4459C51.4261 20.1228 51.0642 19.7286 50.7928 19.2633C50.5343 18.7851 50.4051 18.1971 50.4051 17.4992V17.4604C50.4051 16.8272 50.5214 16.2456 50.7541 15.7157C50.9996 15.1858 51.3486 14.727 51.8009 14.3393C52.2662 13.9516 52.8219 13.6544 53.4681 13.4476C54.1143 13.2279 54.8445 13.118 55.6587 13.118C56.8218 13.118 57.8557 13.2731 58.7604 13.5833C59.678 13.8805 60.5051 14.3264 61.2418 14.9209L59.3614 17.5768C58.741 17.1373 58.1013 16.8078 57.4422 16.5881C56.796 16.3554 56.1692 16.2391 55.5617 16.2391C55.1094 16.2391 54.7669 16.3231 54.5343 16.4911C54.3146 16.6592 54.2047 16.8659 54.2047 17.1115V17.1503C54.2047 17.3054 54.237 17.4411 54.3017 17.5574C54.3792 17.6737 54.502 17.7835 54.67 17.8869C54.8509 17.9774 55.09 18.0743 55.3873 18.1777C55.6974 18.2682 56.0852 18.3651 56.5504 18.4685C57.3259 18.6365 58.0237 18.8368 58.6441 19.0695C59.2774 19.2892 59.8137 19.5606 60.2531 19.8837C60.6925 20.2068 61.0286 20.6009 61.2612 21.0662C61.4938 21.5185 61.6101 22.0613 61.6101 22.6946V22.7334C61.6101 23.4313 61.4744 24.0516 61.203 24.5944C60.9445 25.1372 60.5762 25.6025 60.098 25.9902C59.6199 26.365 59.0447 26.6558 58.3727 26.8626C57.7007 27.0564 56.9511 27.1534 56.1239 27.1534Z" fill="#3A0761"/>
<path d="M66.7086 27.1534C65.5842 27.1534 64.7054 26.8109 64.0721 26.1259C63.4518 25.441 63.1416 24.4975 63.1416 23.2956V16.433H66.8249V22.1131C66.8249 22.6946 66.9606 23.1341 67.232 23.4313C67.5034 23.7286 67.8653 23.8772 68.3176 23.8772C68.757 23.8772 69.1189 23.7286 69.4032 23.4313C69.7005 23.1341 69.8491 22.6946 69.8491 22.1131V16.433H73.5324V26.9208H69.8491V25.4862C69.5131 25.9256 69.0931 26.3133 68.589 26.6494C68.085 26.9854 67.4582 27.1534 66.7086 27.1534Z" fill="#3A0761"/>
<path d="M75.5098 16.4329H79.1931V17.8675C79.5291 17.4281 79.9491 17.0404 80.4532 16.7043C80.9572 16.3683 81.5775 16.2003 82.3142 16.2003C83.0121 16.2003 83.6195 16.3489 84.1365 16.6462C84.6534 16.9434 85.0541 17.3635 85.3384 17.9063C85.7907 17.3764 86.2948 16.9628 86.8505 16.6656C87.4062 16.3554 88.0718 16.2003 88.8472 16.2003C89.9716 16.2003 90.8504 16.5363 91.4837 17.2084C92.117 17.8675 92.4336 18.8109 92.4336 20.0387V26.9207H88.7503V21.2213C88.7503 20.6397 88.6211 20.2067 88.3626 19.9224C88.1041 19.6251 87.7552 19.4765 87.3157 19.4765C86.8763 19.4765 86.5145 19.6251 86.2301 19.9224C85.9458 20.2067 85.8036 20.6397 85.8036 21.2213V26.9207H82.1203V21.2213C82.1203 20.6397 81.9911 20.2067 81.7326 19.9224C81.4741 19.6251 81.1252 19.4765 80.6858 19.4765C80.2464 19.4765 79.8845 19.6251 79.6002 19.9224C79.3288 20.2067 79.1931 20.6397 79.1931 21.2213V26.9207H75.5098V16.4329Z" fill="#3A0761"/>
<path d="M94.3335 16.4329H98.0168V17.8675C98.3528 17.4281 98.7729 17.0404 99.2769 16.7043C99.7809 16.3683 100.401 16.2003 101.138 16.2003C101.836 16.2003 102.443 16.3489 102.96 16.6462C103.477 16.9434 103.878 17.3635 104.162 17.9063C104.614 17.3764 105.118 16.9628 105.674 16.6656C106.23 16.3554 106.896 16.2003 107.671 16.2003C108.795 16.2003 109.674 16.5363 110.307 17.2084C110.941 17.8675 111.257 18.8109 111.257 20.0387V26.9207H107.574V21.2213C107.574 20.6397 107.445 20.2067 107.186 19.9224C106.928 19.6251 106.579 19.4765 106.139 19.4765C105.7 19.4765 105.338 19.6251 105.054 19.9224C104.77 20.2067 104.627 20.6397 104.627 21.2213V26.9207H100.944V21.2213C100.944 20.6397 100.815 20.2067 100.556 19.9224C100.298 19.6251 99.9489 19.4765 99.5095 19.4765C99.0701 19.4765 98.7082 19.6251 98.4239 19.9224C98.1525 20.2067 98.0168 20.6397 98.0168 21.2213V26.9207H94.3335V16.4329Z" fill="#3A0761"/>
<path d="M113.235 16.433H116.918V26.9207H113.235V16.433ZM113.157 12.7691H116.995V15.4831H113.157V12.7691Z" fill="#3A0761"/>
<path d="M123.141 27.1339C122.029 27.1339 121.163 26.869 120.543 26.3391C119.923 25.8092 119.613 24.9175 119.613 23.6639V19.399H118.372V16.4329H119.613V13.7771H123.296V16.4329H125.738V19.399H123.296V22.9466C123.296 23.3214 123.38 23.5928 123.548 23.7608C123.716 23.9159 123.968 23.9934 124.304 23.9934C124.549 23.9934 124.789 23.9611 125.021 23.8965C125.254 23.8319 125.48 23.7479 125.7 23.6445V26.533C125.364 26.7139 124.982 26.8561 124.556 26.9594C124.129 27.0758 123.658 27.1339 123.141 27.1339Z" fill="#3A0761"/>
</svg>
