<svg width="16" height="21" viewBox="0 0 16 21" fill="none" xmlns="http://www.w3.org/2000/svg">
<path fill-rule="evenodd" clip-rule="evenodd" d="M10 4C10 2.897 9.103 2 8 2C6.897 2 6 2.897 6 4V10C6 11.103 6.897 12 8 12C9.103 12 10 11.103 10 10V4ZM4 4C4 1.791 5.791 0 8 0C10.209 0 12 1.791 12 4V10C12 12.209 10.209 14 8 14C5.791 14 4 12.209 4 10V4ZM16 10V8H14V10C14 13.309 11.309 16 8 16C4.691 16 2 13.309 2 10V8H0V10C0 14.0793 3.0539 17.4459 7 17.9381V21H9V17.9381C12.9461 17.4459 16 14.0793 16 10Z" fill="white"/>
</svg>
