<svg width="25" height="24" viewBox="0 0 25 24" fill="none" xmlns="http://www.w3.org/2000/svg">
<path fill-rule="evenodd" clip-rule="evenodd" d="M3 19L3 5C3 3.89543 3.89543 3 5 3L13 3C14.1046 3 15 3.89543 15 5L15 9L17 9L17 5C17 2.79086 15.2091 1 13 1H5C2.79086 1 1 2.79086 1 5V19C1 21.2091 2.79086 23 5 23H13C15.2091 23 17 21.2091 17 19V15L15 15L15 19C15 20.1046 14.1046 21 13 21H5C3.89543 21 3 20.1046 3 19ZM22.5858 10.5858L19.7574 7.75735L18.3431 9.17157L20.1716 11H17H15L9 11L9 13L15 13H17H20.1716L18.3431 14.8284L19.7574 16.2426L22.5858 13.4142L23 13L24 12L23 11L22.5858 10.5858Z" fill="black"/>
<path d="M3 5L2.85 5V5L3 5ZM3 19L3.15 19L3.15 19L3 19ZM5 3L5 2.85L5 2.85L5 3ZM13 3L13 2.85H13L13 3ZM15 5L14.85 5L14.85 5L15 5ZM15 9L14.85 9L14.85 9.15L15 9.15L15 9ZM17 9L17 9.15L17.15 9.15L17.15 9L17 9ZM17 5L16.85 5L16.85 5L17 5ZM17 15H17.15V14.85L17 14.85L17 15ZM15 15L15 14.85L14.85 14.85L14.85 15L15 15ZM15 19L15.15 19L15.15 19L15 19ZM19.7574 7.75735L19.8634 7.65129L19.7574 7.54522L19.6513 7.65129L19.7574 7.75735ZM22.5858 10.5858L22.6919 10.4797L22.6919 10.4797L22.5858 10.5858ZM18.3431 9.17157L18.2371 9.0655L18.131 9.17157L18.2371 9.27763L18.3431 9.17157ZM20.1716 11V11.15H20.5337L20.2776 10.8939L20.1716 11ZM15 11L15 11.15H15V11ZM9 11L9 10.85L8.85 10.85L8.85 11L9 11ZM9 13L8.85 13L8.85 13.15L9 13.15L9 13ZM15 13L15 13.15H15V13ZM20.1716 13L20.2776 13.1061L20.5337 12.85H20.1716V13ZM18.3431 14.8284L18.2371 14.7224L18.131 14.8284L18.2371 14.9345L18.3431 14.8284ZM19.7574 16.2426L19.6513 16.3487L19.7574 16.4548L19.8634 16.3487L19.7574 16.2426ZM22.5858 13.4142L22.6919 13.5203L22.6919 13.5203L22.5858 13.4142ZM24 12L24.1061 12.1061L24.2121 12L24.1061 11.8939L24 12ZM23 11L22.8939 11.1061L22.8939 11.1061L23 11ZM2.85 5L2.85 19L3.15 19L3.15 5L2.85 5ZM5 2.85C3.81259 2.85 2.85 3.81259 2.85 5H3.15C3.15 3.97827 3.97827 3.15 5 3.15L5 2.85ZM13 2.85L5 2.85L5 3.15L13 3.15L13 2.85ZM15.15 5C15.15 3.81259 14.1874 2.85 13 2.85V3.15C14.0217 3.15 14.85 3.97827 14.85 5H15.15ZM15.15 9L15.15 5L14.85 5L14.85 9L15.15 9ZM15 9.15L17 9.15L17 8.85L15 8.85L15 9.15ZM17.15 9L17.15 5L16.85 5L16.85 9L17.15 9ZM17.15 5C17.15 2.70802 15.292 0.85 13 0.85V1.15C15.1263 1.15 16.85 2.8737 16.85 5H17.15ZM13 0.85H5V1.15H13V0.85ZM5 0.85C2.70802 0.85 0.85 2.70802 0.85 5H1.15C1.15 2.8737 2.8737 1.15 5 1.15V0.85ZM0.85 5V19H1.15V5H0.85ZM0.85 19C0.85 21.292 2.70802 23.15 5 23.15V22.85C2.8737 22.85 1.15 21.1263 1.15 19H0.85ZM5 23.15H13V22.85H5V23.15ZM13 23.15C15.292 23.15 17.15 21.292 17.15 19H16.85C16.85 21.1263 15.1263 22.85 13 22.85V23.15ZM17.15 19V15H16.85V19H17.15ZM17 14.85L15 14.85L15 15.15L17 15.15L17 14.85ZM15.15 19L15.15 15L14.85 15L14.85 19L15.15 19ZM13 21.15C14.1874 21.15 15.15 20.1874 15.15 19H14.85C14.85 20.0217 14.0217 20.85 13 20.85V21.15ZM5 21.15H13V20.85H5V21.15ZM2.85 19C2.85 20.1874 3.81259 21.15 5 21.15V20.85C3.97827 20.85 3.15 20.0217 3.15 19H2.85ZM19.6513 7.86342L22.4797 10.6918L22.6919 10.4797L19.8634 7.65129L19.6513 7.86342ZM18.4492 9.27763L19.8634 7.86342L19.6513 7.65129L18.2371 9.0655L18.4492 9.27763ZM20.2776 10.8939L18.4492 9.0655L18.2371 9.27763L20.0655 11.1061L20.2776 10.8939ZM17 11.15H20.1716V10.85H17V11.15ZM15 11.15H17V10.85H15V11.15ZM9 11.15L15 11.15L15 10.85L9 10.85L9 11.15ZM9.15 13L9.15 11L8.85 11L8.85 13L9.15 13ZM15 12.85L9 12.85L9 13.15L15 13.15L15 12.85ZM17 12.85H15V13.15H17V12.85ZM20.1716 12.85H17V13.15H20.1716V12.85ZM18.4492 14.9345L20.2776 13.1061L20.0655 12.8939L18.2371 14.7224L18.4492 14.9345ZM19.8634 16.1366L18.4492 14.7224L18.2371 14.9345L19.6513 16.3487L19.8634 16.1366ZM22.4797 13.3081L19.6513 16.1366L19.8634 16.3487L22.6919 13.5203L22.4797 13.3081ZM22.8939 12.8939L22.4797 13.3081L22.6919 13.5203L23.1061 13.1061L22.8939 12.8939ZM23.8939 11.8939L22.8939 12.8939L23.1061 13.1061L24.1061 12.1061L23.8939 11.8939ZM22.8939 11.1061L23.8939 12.1061L24.1061 11.8939L23.1061 10.8939L22.8939 11.1061ZM22.4797 10.6918L22.8939 11.1061L23.1061 10.8939L22.6919 10.4797L22.4797 10.6918Z" fill="black"/>
</svg>
