<svg width="24" height="26" viewBox="0 0 24 26" fill="none" xmlns="http://www.w3.org/2000/svg">
<path d="M22.0695 10.9337L14.3638 3.19012C14.0852 2.91026 13.6337 2.91026 13.3552 3.19012C12.7596 3.78865 12.2417 5.72637 12.076 6.40035L8.98169 9.51003C8.70121 9.41548 8.40561 9.36657 8.10681 9.36657C7.37371 9.36657 6.68455 9.65342 6.16597 10.1744C5.0962 11.2497 5.0962 12.9994 6.16603 14.0747L8.19776 16.1164L1.20891 22.8602C0.930365 23.1401 0.930365 23.5939 1.20891 23.8738C1.34812 24.0137 1.5307 24.0837 1.71321 24.0837C1.89573 24.0837 2.07819 24.0137 2.21752 23.8738L9.20643 17.1301L11.2383 19.172C11.7567 19.6928 12.4459 19.9798 13.179 19.9798C13.9121 19.9798 14.6013 19.6928 15.1195 19.172C15.8684 18.4197 16.1088 17.3188 15.7811 16.342L18.8749 13.233C19.5453 13.0665 21.4738 12.5463 22.0697 11.947C22.348 11.6672 22.3479 11.2135 22.0695 10.9337ZM18.3616 11.8832C18.2109 11.9137 18.0742 11.9922 17.9715 12.1071C17.9334 12.1497 17.899 12.1865 17.8663 12.2193L14.4248 15.6778C14.1947 15.909 14.1495 16.2674 14.315 16.549C14.6205 17.0688 14.5367 17.7306 14.1109 18.1583C13.862 18.4084 13.531 18.5463 13.179 18.5463C12.8269 18.5463 12.4959 18.4086 12.2469 18.1583L9.71199 15.6108L9.71079 15.6095L9.70954 15.6083L7.17476 13.0611C6.66093 12.5446 6.66093 11.7042 7.17465 11.1878C7.42369 10.9376 7.75472 10.7998 8.10687 10.7998C8.34313 10.7998 8.57449 10.863 8.77612 10.9826C9.05638 11.1489 9.41302 11.1036 9.64313 10.8723L13.0838 7.41463C13.1184 7.37994 13.1555 7.34479 13.1943 7.31022C13.3096 7.2069 13.3886 7.06866 13.4191 6.91638C13.5202 6.41108 13.788 5.51578 14.0318 4.88325L20.3843 11.267C19.7542 11.5129 18.8642 11.7817 18.3616 11.8832Z" fill="#25053E" stroke="#25053E" stroke-width="0.3"/>
</svg>
