<svg width="14" height="14" viewBox="0 0 14 14" fill="none" xmlns="http://www.w3.org/2000/svg">
<g opacity="0.2">
<path fill-rule="evenodd" clip-rule="evenodd" d="M6.1162 1.715C3.6896 1.715 1.71798 3.68972 1.71798 6.1142C1.71798 8.54135 3.69226 10.5134 6.1162 10.5134C8.54018 10.5134 10.5171 8.54135 10.5171 6.1142C10.5171 3.68972 8.54281 1.715 6.1162 1.715ZM12.388 12.8962L9.47184 9.97937C8.57251 10.7618 7.39911 11.2355 6.11663 11.2355C3.29357 11.2355 1 8.93876 1 6.11774C1 3.29408 3.29623 1 6.11663 1C8.93703 1 11.2333 3.29671 11.2333 6.11774C11.2333 7.40053 10.7596 8.57419 9.97738 9.47372L12.8936 12.3906C12.9627 12.4597 13 12.5529 13 12.6434C13 12.7339 12.9654 12.827 12.8936 12.8962C12.7552 13.0346 12.5264 13.0346 12.388 12.8962Z" fill="#334D6E"/>
<path fill-rule="evenodd" clip-rule="evenodd" d="M6.1162 1.715C3.6896 1.715 1.71798 3.68972 1.71798 6.1142C1.71798 8.54135 3.69226 10.5134 6.1162 10.5134C8.54018 10.5134 10.5171 8.54135 10.5171 6.1142C10.5171 3.68972 8.54281 1.715 6.1162 1.715ZM12.388 12.8962L9.47184 9.97937C8.57251 10.7618 7.39911 11.2355 6.11663 11.2355C3.29357 11.2355 1 8.93876 1 6.11774C1 3.29408 3.29623 1 6.11663 1C8.93703 1 11.2333 3.29671 11.2333 6.11774C11.2333 7.40053 10.7596 8.57419 9.97738 9.47372L12.8936 12.3906C12.9627 12.4597 13 12.5529 13 12.6434C13 12.7339 12.9654 12.827 12.8936 12.8962C12.7552 13.0346 12.5264 13.0346 12.388 12.8962Z" fill="#334D6E"/>
<path d="M12.388 12.8962L12.0344 13.2497L12.388 12.8962ZM9.47184 9.97937L9.14366 9.60215L9.49561 9.29596L9.82543 9.62586L9.47184 9.97937ZM9.97738 9.47372L9.62379 9.82723L9.29411 9.49748L9.60009 9.14562L9.97738 9.47372ZM12.8936 12.3906L12.54 12.7441L12.8936 12.3906ZM12.8936 12.8962L12.5399 12.5426L12.5467 12.5361L12.8936 12.8962ZM6.1162 2.215C3.96604 2.215 2.21798 3.96556 2.21798 6.1142H1.21798C1.21798 3.41388 3.41315 1.215 6.1162 1.215V2.215ZM2.21798 6.1142C2.21798 8.26511 3.96831 10.0134 6.1162 10.0134V11.0134C3.41621 11.0134 1.21798 8.81758 1.21798 6.1142H2.21798ZM6.1162 10.0134C8.26452 10.0134 10.0171 8.26472 10.0171 6.1142H11.0171C11.0171 8.81798 8.81584 11.0134 6.1162 11.0134V10.0134ZM10.0171 6.1142C10.0171 3.96595 8.26676 2.215 6.1162 2.215V1.215C8.81886 1.215 11.0171 3.41348 11.0171 6.1142H10.0171ZM12.0344 13.2497L9.11825 10.3329L9.82543 9.62586L12.7416 12.5427L12.0344 13.2497ZM9.80002 10.3566C8.81342 11.2149 7.5246 11.7355 6.11663 11.7355V10.7355C7.27363 10.7355 8.33159 10.3086 9.14366 9.60215L9.80002 10.3566ZM6.11663 11.7355C3.01715 11.7355 0.5 9.21463 0.5 6.11774H1.5C1.5 8.6629 3.56999 10.7355 6.11663 10.7355V11.7355ZM0.5 6.11774C0.5 3.01787 3.02015 0.5 6.11663 0.5V1.5C3.57231 1.5 1.5 3.57029 1.5 6.11774H0.5ZM6.11663 0.5C9.21327 0.5 11.7333 3.02067 11.7333 6.11774H10.7333C10.7333 3.57275 8.66079 1.5 6.11663 1.5V0.5ZM11.7333 6.11774C11.7333 7.52595 11.2128 8.815 10.3547 9.80182L9.60009 9.14562C10.3065 8.33337 10.7333 7.27512 10.7333 6.11774H11.7333ZM10.331 9.1202L13.2472 12.037L12.54 12.7441L9.62379 9.82723L10.331 9.1202ZM13.2472 12.037C13.4096 12.1995 13.5 12.4196 13.5 12.6434H12.5C12.5 12.6862 12.5159 12.72 12.54 12.7441L13.2472 12.037ZM13.5 12.6434C13.5 12.8586 13.4178 13.0855 13.2404 13.2563L12.5467 12.5361C12.513 12.5686 12.5 12.6091 12.5 12.6434H13.5ZM13.2472 13.2497C12.9135 13.5834 12.3681 13.5834 12.0344 13.2497L12.7416 12.5427C12.6847 12.4858 12.5969 12.4858 12.54 12.5427L13.2472 13.2497Z" fill="#3B4A5F"/>
</g>
</svg>
