<svg width="21" height="21" viewBox="0 0 21 21" fill="none" xmlns="http://www.w3.org/2000/svg">
<path fill-rule="evenodd" clip-rule="evenodd" d="M19.6875 10.5C19.6875 15.5741 15.5741 19.6875 10.5 19.6875C5.42588 19.6875 1.3125 15.5741 1.3125 10.5C1.3125 5.42588 5.42588 1.3125 10.5 1.3125C15.5741 1.3125 19.6875 5.42588 19.6875 10.5ZM21 10.5C21 16.299 16.299 21 10.5 21C4.70101 21 0 16.299 0 10.5C0 4.70101 4.70101 0 10.5 0C16.299 0 21 4.70101 21 10.5ZM10.5008 12.7617C12.5413 12.7617 13.9956 12.1821 15.3186 11.241L15.75 11.6293C14.7638 12.9838 12.9508 14.4375 10.5008 14.4375C8.04997 14.4375 6.23609 12.9838 5.24997 11.6293L5.68134 11.241C7.00434 12.1821 8.45859 12.7617 10.5008 12.7617ZM6.12497 7.74375C6.12497 7.09091 6.71297 6.5625 7.43747 6.5625C8.16197 6.5625 8.74997 7.09091 8.74997 7.74375C8.74997 8.39659 8.16197 8.925 7.43747 8.925C6.71297 8.925 6.12497 8.39659 6.12497 7.74375ZM12.25 7.74375C12.25 7.09091 12.838 6.5625 13.5625 6.5625C14.287 6.5625 14.875 7.09091 14.875 7.74375C14.875 8.39659 14.287 8.925 13.5625 8.925C12.838 8.925 12.25 8.39659 12.25 7.74375Z" fill="black" fill-opacity="0.3"/>
</svg>
