<svg width="16" height="16" viewBox="0 0 16 16" fill="none" xmlns="http://www.w3.org/2000/svg">
<rect width="16" height="16" rx="2" fill="#FF3459"/>
<path fill-rule="evenodd" clip-rule="evenodd" d="M8.00016 4.33337C8.70103 4.33337 9.27567 4.87425 9.32939 5.56133L8.66683 6.2239V5.66671C8.66683 5.29904 8.36783 5.00004 8.00016 5.00004C7.6325 5.00004 7.3335 5.29904 7.3335 5.66671V7.55723L6.75258 8.13814C6.69716 7.99157 6.66683 7.83268 6.66683 7.66671V5.66671C6.66683 4.93037 7.26383 4.33337 8.00016 4.33337ZM7.74388 8.97543L7.21369 9.50563C7.21371 9.50564 7.21373 9.50565 7.21374 9.50565L6.7154 10.004C6.71538 10.004 6.71536 10.004 6.71534 10.004L4.77643 11.9429L4.3335 11.5L11.2239 4.60955L11.6668 5.05249L9.3335 7.38582V7.3859L7.74395 8.97544C7.74393 8.97544 7.74391 8.97544 7.74388 8.97543ZM6.00016 7.66671C6.00016 8.01914 6.09174 8.35054 6.25236 8.63837L5.76665 9.12408C5.49274 8.70518 5.3335 8.20453 5.3335 7.66671V7.00004H6.00016V7.66671ZM7.66683 10.3127C7.57546 10.3013 7.48554 10.2853 7.39728 10.2649L7.99551 9.6667L8.00016 9.66671C9.10316 9.66671 10.0002 8.76971 10.0002 7.66671V7.66205L10.6622 7.00004H10.6668V7.66671C10.6668 9.02649 9.64886 10.1487 8.3335 10.3127V11.3334H7.66683V10.3127Z" fill="white"/>
</svg>
