<svg width="22" height="23" viewBox="0 0 22 23" fill="none" xmlns="http://www.w3.org/2000/svg">
<path fill-rule="evenodd" clip-rule="evenodd" d="M2.71164 18.7879L0 21.4996L1.3288 22.8284L5.15722 18.9999L7.15722 16.9999L15.8695 8.2877L17.3475 6.80961L22 2.15716L20.6712 0.828369L15.9774 5.52212L14.449 7.05054L4.49963 16.9999L2.71164 18.7879ZM4 4.99994H13.6712L11.6712 6.99994H4C2.89543 6.99994 2 7.89537 2 8.99994V14.9999C2 15.4685 2.1611 15.8993 2.43092 16.2402L1.01193 17.6592C0.382465 16.9524 0 16.0208 0 14.9999V8.99994C0 6.7908 1.79086 4.99994 4 4.99994ZM14 16.9999H9.98565L7.98565 18.9999H14C16.1482 18.9999 17.9009 17.3065 17.9959 15.1817L22 17.9999V5.99994L18.5751 8.41052L16 10.9856V13.7769V14.9999C16 16.1045 15.1046 16.9999 14 16.9999ZM18 12.7389L20 14.1469V9.85394L18 11.2609V12.7389Z" fill="white"/>
</svg>
