<svg width="24" height="26" viewBox="0 0 24 26" fill="none" xmlns="http://www.w3.org/2000/svg">
<path opacity="0.6" d="M9.602 4.7C8.448 6.637 8.967 9.927 11.026 13.725C11.956 15.437 11.723 16.745 11.364 17.54C10.382 19.718 7.689 20.339 4.839 20.996C3.10683 21.3964 2.9996 21.7673 2.99842 23.9993C2.99812 24.5513 2.5525 25 2.00049 25C1.45005 25 1.00321 24.555 1.00099 24.0045L1 23.759C1 21.239 1.199 19.784 4.178 19.096C7.543 18.319 10.866 17.623 9.268 14.678C4.535 5.949 7.918 1 13 1C16.321 1 18.97 3.117 18.97 7.167C18.97 10.1557 17.5925 12.9487 16.8957 14.3568C16.7035 14.7454 16.3065 15 15.8729 15C15.1627 15 14.6865 14.3437 14.9879 13.7006C15.7433 12.0882 16.971 9.81132 16.971 7.158C16.971 2.005 11.104 2.173 9.602 4.7ZM23 20H20V17H18V20H15V22H18V25H20V22H23V20Z" fill="black" stroke="black" stroke-width="0.3"/>
</svg>
