<svg width="22" height="14" viewBox="0 0 22 14" fill="none" xmlns="http://www.w3.org/2000/svg">
<path fill-rule="evenodd" clip-rule="evenodd" d="M4 2H14C15.1046 2 16 2.89543 16 4V5.223V8.777V10C16 11.1046 15.1046 12 14 12H4C2.89543 12 2 11.1046 2 10V4C2 2.89543 2.89543 2 4 2ZM17.9959 10.1818C17.9009 12.3066 16.1482 14 14 14H4C1.79086 14 0 12.2091 0 10V4C0 1.79086 1.79086 0 4 0H14C16.1482 0 17.9009 1.69343 17.9959 3.81819L22 1V13L17.9959 10.1818ZM18 7.739L20 9.147V4.854L18 6.261V7.739Z" fill="white"/>
</svg>
